<svg width="114" height="40" fill="none" xmlns="http://www.w3.org/2000/svg"><rect width="113.571" height="40" rx="4" fill="#E5ECF4"/><path fill-rule="evenodd" clip-rule="evenodd" d="M67.487 30.7a4.972 4.972 0 01-1.515.214c-.657 0-1.235-.093-1.735-.278a3.476 3.476 0 01-1.25-.772 3.256 3.256 0 01-.758-1.157 3.984 3.984 0 01-.257-1.45v-.429h1.886v.343c0 .6.174 1.079.521 1.436.348.357.889.536 1.622.536.571 0 .995-.124 1.271-.372.277-.247.415-.543.415-.885 0-.162-.029-.317-.086-.465a.986.986 0 00-.3-.4 2.084 2.084 0 00-.586-.321 5.15 5.15 0 00-.943-.243 9.531 9.531 0 01-1.385-.336 3.856 3.856 0 01-1.093-.55 2.368 2.368 0 01-.722-.857c-.171-.343-.257-.762-.257-1.257v-.086c0-.41.084-.788.25-1.135.167-.348.4-.65.7-.908.3-.257.662-.457 1.086-.6a4.435 4.435 0 011.421-.214c.59 0 1.115.084 1.572.25.457.167.84.393 1.15.679.31.285.543.614.7.985.157.372.236.762.236 1.172v.514h-1.886v-.343c0-.4-.155-.747-.465-1.043-.309-.295-.745-.442-1.307-.442-.476 0-.852.097-1.128.292a.922.922 0 00-.415.793c0 .172.034.327.1.465a.952.952 0 00.35.371c.167.11.386.207.658.293.271.086.616.166 1.035.243 1.048.19 1.848.51 2.4.957.553.448.829 1.11.829 1.986v.171c0 .467-.083.888-.25 1.264a2.664 2.664 0 01-.722.965 3.288 3.288 0 01-1.142.614zm-28.158.014l.485-2.143h3.4l.486 2.143h1.971l-2.385-10h-3.543l-2.386 10h1.971zm3.47-3.943h-2.585l1.172-5.114h.257l1.157 5.114zm4.992 2.915v3.885h-1.8v-9.943h1.8v1.029h.257c.19-.39.466-.693.828-.907.362-.214.824-.322 1.386-.322.42 0 .817.081 1.193.243.376.162.705.398.986.707.28.31.505.689.671 1.136.167.448.25.957.25 1.529v.257c0 .58-.08 1.095-.243 1.543a3.442 3.442 0 01-.657 1.135c-.276.31-.602.543-.978.7a3.136 3.136 0 01-1.222.236 3.15 3.15 0 01-.843-.1 2.25 2.25 0 01-.621-.271 1.87 1.87 0 01-.443-.393 2.903 2.903 0 01-.307-.464h-.257zm1.885-.486c-.562 0-1.016-.179-1.364-.536-.347-.357-.521-.826-.521-1.407v-.171c0-.581.174-1.05.521-1.408.348-.357.803-.535 1.364-.535.562 0 1.017.174 1.365.521.347.348.521.822.521 1.422v.171c0 .6-.174 1.074-.521 1.421-.348.348-.803.522-1.365.522zm6.22.486v3.885h-1.8v-9.943h1.8v1.029h.257c.19-.39.467-.693.828-.907.362-.214.824-.322 1.386-.322.42 0 .817.081 1.193.243.376.162.705.398.986.707.28.31.505.689.671 1.136.167.448.25.957.25 1.529v.257c0 .58-.08 1.095-.243 1.543a3.44 3.44 0 01-.657 1.135c-.276.31-.602.543-.978.7a3.136 3.136 0 01-1.222.236 3.15 3.15 0 01-.843-.1 2.25 2.25 0 01-.621-.271 1.87 1.87 0 01-.443-.393 2.903 2.903 0 01-.307-.464h-.257zm1.886-.486c-.562 0-1.017-.179-1.365-.536-.347-.357-.521-.826-.521-1.407v-.171c0-.581.174-1.05.521-1.408.348-.357.803-.535 1.364-.535.563 0 1.017.174 1.365.521.347.348.521.822.521 1.422v.171c0 .6-.174 1.074-.521 1.421-.348.348-.803.522-1.364.522zm18.895 1.514V29h-1.914c-.257 0-.386-.143-.386-.429v-3.228h2.558v-1.715h-2.558v-2.914h-1.8v2.914h-2.1v1.715h2.1V29.6c0 .324.103.59.308.8.204.21.469.314.792.314h3zm6.756-.043a4.025 4.025 0 01-1.393.243c-.486 0-.95-.08-1.393-.243a3.57 3.57 0 01-1.179-.707 3.331 3.331 0 01-.814-1.143c-.2-.452-.3-.974-.3-1.564v-.171c0-.581.1-1.098.3-1.55.2-.453.471-.836.814-1.15a3.509 3.509 0 011.179-.715 4.024 4.024 0 011.393-.243c.485 0 .95.081 1.393.243.442.162.835.4 1.178.715.343.314.614.697.814 1.15.2.452.3.969.3 1.55v.171c0 .59-.1 1.112-.3 1.564-.2.453-.471.834-.814 1.143a3.57 3.57 0 01-1.178.707zM82.04 29.2c-.257 0-.5-.043-.729-.129a1.769 1.769 0 01-.6-.371 1.754 1.754 0 01-.407-.593c-.1-.233-.15-.498-.15-.793v-.286c0-.295.05-.56.15-.792.1-.234.236-.431.407-.593.172-.162.372-.286.6-.372.229-.085.472-.128.729-.128s.5.043.728.128c.229.086.429.21.6.372.172.162.307.36.407.593.1.233.15.497.15.792v.286c0 .295-.05.56-.15.793-.1.233-.235.431-.407.593a1.767 1.767 0 01-.6.371 2.058 2.058 0 01-.728.129zm9.22-.2v1.714h-4.887V29h1.457v-3.657h-1.285v-1.715h3v1.029h.257c.133-.39.36-.693.678-.907.32-.214.703-.322 1.15-.322.705 0 1.272.222 1.7.665.43.443.643 1.116.643 2.021v.314l-1.857.172v-.2c0-.39-.1-.702-.3-.936-.2-.233-.5-.35-.9-.35s-.714.138-.943.414c-.228.277-.343.672-.343 1.186V29h1.63zm7.061 1.914a4.25 4.25 0 001.222-.157c.347-.105.643-.238.885-.4.243-.162.441-.34.593-.536a2.98 2.98 0 00.357-.564l-1.542-.857a1.41 1.41 0 01-.515.564c-.238.157-.58.236-1.028.236-.229 0-.446-.036-.65-.107a1.768 1.768 0 01-.543-.3 1.389 1.389 0 01-.521-1.036h5.199V26.8a3.57 3.57 0 00-.2-1.15 3.192 3.192 0 00-.628-1.086 3.396 3.396 0 00-1.086-.814c-.438-.214-.962-.322-1.571-.322-.496 0-.96.088-1.393.265a3.37 3.37 0 00-1.9 1.879 3.841 3.841 0 00-.279 1.485v.086c0 .59.088 1.119.265 1.585.176.467.423.862.742 1.186a3.22 3.22 0 001.136.743c.438.171.924.257 1.457.257zm-1.714-4.7h3.343c-.057-.333-.236-.61-.536-.828-.3-.22-.678-.329-1.136-.329-.457 0-.828.117-1.114.35-.285.233-.471.502-.557.807zM51.825 9.604a.655.655 0 01-.525 0 .734.734 0 01-.214-.143.673.673 0 01-.2-.482.673.673 0 01.94-.625.721.721 0 01.217.143.673.673 0 01.2.482.673.673 0 01-.2.482.72.72 0 01-.218.143zM38.48 12.5l-.243 1.072h-.986l1.193-5h1.771l1.193 5h-.986L40.18 12.5h-1.7zm.2-.9h1.292l-.578-2.557h-.129L38.68 11.6zm5.552 1.972l1.014-3.543h-.971l-.836 3.114h-.128l-.836-3.114h-.971l1.014 3.543h1.714zm3.467-.04a1.24 1.24 0 01-.6.14c-.214 0-.416-.04-.604-.122a1.43 1.43 0 01-.496-.357 1.742 1.742 0 01-.34-.571 2.178 2.178 0 01-.124-.765v-.114c0-.28.04-.533.121-.757.081-.224.19-.414.329-.571a1.407 1.407 0 011.071-.486c.252 0 .456.043.61.128.156.086.278.22.369.4h.128v-.428h.9V12.5c0 .143.065.215.193.215h.136v.857h-.614a.559.559 0 01-.397-.143.484.484 0 01-.154-.372h-.128c-.095.224-.229.383-.4.475zm-.4-.717a.806.806 0 01-.629-.261c-.157-.174-.235-.41-.235-.71v-.087c0-.3.078-.537.235-.71a.806.806 0 01.629-.261c.262 0 .471.087.628.26.158.175.236.411.236.711v.086c0 .3-.078.537-.236.71a.806.806 0 01-.628.262zm5.752-.1h-1.028v-2.686h-2.014v.857h1.114v1.829h-1.2v.857h3.129v-.857zm2.982 0h1.157v.857h-3.3v-.857h1.243V9.429h-1.2v-.857h2.1v4.143zm3.224.957c.228 0 .428-.047.6-.14.171-.092.304-.25.4-.475h.128c0 .153.051.277.154.372a.559.559 0 00.396.143h.614v-.857h-.135c-.129 0-.193-.072-.193-.215V10.03h-.9v.428h-.129a.902.902 0 00-.367-.4c-.155-.085-.359-.128-.611-.128a1.406 1.406 0 00-1.072.486 1.762 1.762 0 00-.328.571 2.214 2.214 0 00-.122.757v.114c0 .286.042.54.125.765.084.223.197.414.34.571.142.157.308.276.496.357.188.081.39.122.604.122zm-.429-1.118c.157.174.367.26.629.26a.806.806 0 00.628-.26c.157-.174.236-.41.236-.71v-.087c0-.3-.079-.537-.236-.71a.806.806 0 00-.628-.261.806.806 0 00-.629.26c-.157.175-.236.411-.236.711v.086c0 .3.079.537.236.71zm5.174 1.118c.22 0 .423-.04.61-.118.189-.079.352-.195.49-.35.138-.155.248-.344.329-.568.08-.224.121-.48.121-.771v-.129c0-.286-.042-.54-.125-.764a1.732 1.732 0 00-.336-.568 1.414 1.414 0 00-.493-.354 1.493 1.493 0 00-.596-.121c-.28 0-.512.053-.693.16-.18.108-.319.259-.414.454h-.129V8.572h-.9v5h.9v-.515h.129c.043.081.094.159.153.233.06.073.134.139.222.196.088.057.192.102.31.136.12.033.26.05.422.05zm-.975-1.125c.174.178.401.268.682.268s.508-.087.682-.261c.174-.174.261-.41.261-.71v-.087c0-.3-.087-.537-.26-.71-.175-.174-.402-.261-.683-.261-.28 0-.508.09-.682.268-.174.178-.26.413-.26.703v.086c0 .29.086.525.26.704zm6.32.168H68.19V8.572h-2.1v.857h1.2v3.286h-1.243v.857h3.3v-.857zm3.05.878a2.128 2.128 0 01-.611.079c-.267 0-.51-.043-.729-.129a1.61 1.61 0 01-.94-.964 2.233 2.233 0 01-.131-.793v-.043c0-.271.046-.519.139-.743a1.684 1.684 0 01.95-.939 1.83 1.83 0 01.696-.132c.305 0 .567.053.786.16.22.108.4.243.543.408.143.164.248.345.314.543.067.197.1.389.1.575v.478h-2.6a.693.693 0 00.261.518.884.884 0 00.271.15.98.98 0 00.325.054c.224 0 .396-.04.515-.118a.704.704 0 00.257-.282l.771.428a1.53 1.53 0 01-.178.282 1.252 1.252 0 01-.297.268c-.121.081-.269.148-.443.2zm.203-2.271h-1.671a.799.799 0 01.278-.404c.143-.116.329-.175.557-.175.229 0 .418.055.568.164.15.11.24.248.268.415zm7.951 2.228c-.22.081-.453.122-.696.122-.243 0-.475-.04-.696-.122a1.785 1.785 0 01-.59-.353 1.664 1.664 0 01-.407-.572c-.1-.226-.15-.487-.15-.782v-.086c0-.29.05-.548.15-.775a1.703 1.703 0 01.997-.932c.221-.08.453-.121.696-.121.243 0 .475.04.697.121a1.704 1.704 0 01.996.932c.1.227.15.485.15.775v.086c0 .295-.05.556-.15.782-.1.226-.236.417-.407.572a1.785 1.785 0 01-.59.353zm-.696-.735a1.03 1.03 0 01-.364-.065.878.878 0 01-.504-.482.997.997 0 01-.075-.396v-.143c0-.148.025-.28.075-.397a.878.878 0 01.504-.482c.114-.043.236-.064.364-.064.129 0 .25.021.364.064a.878.878 0 01.504.482c.05.117.075.25.075.397v.143c0 .147-.025.28-.075.396a.877.877 0 01-.504.482 1.03 1.03 0 01-.364.065zm3.324-1.086v1.843h-.9v-3.543h.9v.528h.129a.94.94 0 01.392-.464c.181-.11.393-.164.636-.164.172 0 .332.027.482.082.15.055.283.14.397.254.114.114.203.26.268.435.064.177.096.386.096.629v2.243h-.9v-2.015c0-.252-.06-.45-.182-.596-.121-.145-.296-.218-.525-.218-.267 0-.466.09-.597.268-.13.179-.196.418-.196.718zm10.205.986h-.957c-.129 0-.193-.072-.193-.215v-1.614h1.279v-.857h-1.279V8.572h-.9v1.457h-1.05v.857h1.05v2.129a.53.53 0 00.55.557h1.5v-.857zm1.967-.986v1.843h-.9v-5h.9V10.6h.129c.09-.214.223-.38.4-.496.176-.117.392-.175.65-.175.176 0 .338.028.485.086.148.057.276.142.386.257.11.114.195.26.257.439s.093.39.093.632v2.229h-.9v-2.015c0-.252-.06-.45-.182-.596-.122-.145-.297-.218-.525-.218-.267 0-.466.09-.597.268-.13.179-.196.418-.196.718zm4.803 1.943c.233 0 .436-.027.61-.079.174-.052.322-.119.443-.2.122-.08.22-.17.297-.268.076-.097.135-.191.178-.282l-.771-.428a.709.709 0 01-.257.282c-.119.078-.291.118-.515.118a.98.98 0 01-.325-.054.884.884 0 01-.271-.15.696.696 0 01-.26-.518h2.599v-.478c0-.186-.033-.378-.1-.575a1.605 1.605 0 00-.314-.543 1.696 1.696 0 00-.543-.407 1.772 1.772 0 00-.786-.161c-.247 0-.48.044-.696.132a1.685 1.685 0 00-.95.94c-.093.223-.14.47-.14.742v.043c0 .295.045.56.133.793.088.233.212.43.371.593.16.162.349.285.568.371.219.086.462.129.729.129zm-.858-2.35h1.672a.637.637 0 00-.268-.415.938.938 0 00-.568-.164c-.228 0-.414.059-.557.175a.799.799 0 00-.279.404zM21.107 11.595c.706-.862 1.916-1.524 2.952-1.595.174 1.178-.306 2.332-.94 3.147-.677.876-1.847 1.553-2.978 1.518-.207-1.128.323-2.289.966-3.07zm3.19 3.072c1.38 0 2.839.745 3.878 2.03-3.406 1.853-2.854 6.68.587 7.973-.473 1.04-.7 1.505-1.31 2.427-.851 1.286-2.05 2.89-3.538 2.9-.611.007-1.012-.176-1.445-.373-.501-.228-1.045-.475-2.007-.47-.957.005-1.509.25-2.017.474-.444.196-.854.378-1.47.372-1.487-.013-2.624-1.459-3.475-2.745-2.377-3.595-2.629-7.815-1.161-10.06 1.044-1.594 2.69-2.526 4.236-2.526.824 0 1.488.235 2.12.459.577.204 1.127.398 1.748.398.575 0 1.048-.177 1.563-.371.619-.233 1.299-.488 2.291-.488z" fill="#495567"/></svg>