<svg width="131" height="40" fill="none" xmlns="http://www.w3.org/2000/svg"><rect x=".429" width="130" height="40" rx="4" fill="#E5ECF4"/><path fill-rule="evenodd" clip-rule="evenodd" d="M42.943 30.536c-.324.252-.81.378-1.457.378a3.23 3.23 0 01-1.286-.257 2.874 2.874 0 01-1.043-.764 3.72 3.72 0 01-.7-1.257c-.171-.5-.257-1.084-.257-1.75v-2.343c0-.648.093-1.222.278-1.722.186-.5.443-.921.772-1.264a3.208 3.208 0 011.178-.779 4.18 4.18 0 011.515-.264c.571 0 1.08.093 1.528.279.448.185.829.443 1.143.771.315.329.553.714.715 1.157.161.443.242.917.242 1.422v.171h-1.885v-.171c0-.6-.155-1.055-.465-1.365-.31-.31-.745-.464-1.307-.464-.533 0-.971.179-1.314.536-.343.357-.514.969-.514 1.836V26.8c0 1.543.628 2.314 1.885 2.314.562 0 .989-.15 1.279-.45.29-.3.436-.702.436-1.207h-2.4v-1.8h4.285v5.057h-1.714V29.6H43.6a1.862 1.862 0 01-.657.936zm8.498.135a4.025 4.025 0 01-1.393.243c-.486 0-.95-.08-1.393-.243a3.57 3.57 0 01-1.178-.707 3.331 3.331 0 01-.815-1.143c-.2-.452-.3-.974-.3-1.564v-.171c0-.581.1-1.098.3-1.55.2-.453.472-.836.815-1.15a3.509 3.509 0 011.178-.715 4.024 4.024 0 011.393-.243c.486 0 .95.081 1.393.243.443.162.835.4 1.178.715.343.314.615.697.815 1.15.2.452.3.969.3 1.55v.171c0 .59-.1 1.112-.3 1.564-.2.453-.472.834-.815 1.143a3.57 3.57 0 01-1.178.707zM50.048 29.2c-.257 0-.5-.043-.729-.129a1.769 1.769 0 01-.6-.371 1.754 1.754 0 01-.407-.593c-.1-.233-.15-.498-.15-.793v-.286c0-.295.05-.56.15-.792.1-.234.236-.431.407-.593.172-.162.372-.286.6-.372.229-.085.472-.128.729-.128s.5.043.728.128c.23.086.43.21.6.372.172.162.308.36.408.593.1.233.15.497.15.792v.286c0 .295-.05.56-.15.793-.1.233-.236.431-.407.593a1.767 1.767 0 01-.6.371 2.058 2.058 0 01-.73.129zm9.498 1.471a4.025 4.025 0 01-1.393.243c-.486 0-.95-.08-1.393-.243a3.57 3.57 0 01-1.178-.707 3.331 3.331 0 01-.815-1.143c-.2-.452-.3-.974-.3-1.564v-.171c0-.581.1-1.098.3-1.55.2-.453.472-.836.815-1.15a3.509 3.509 0 011.178-.715 4.024 4.024 0 011.393-.243c.486 0 .95.081 1.393.243.443.162.836.4 1.178.715.343.314.615.697.815 1.15.2.452.3.969.3 1.55v.171c0 .59-.1 1.112-.3 1.564-.2.453-.472.834-.815 1.143a3.57 3.57 0 01-1.178.707zM58.153 29.2c-.257 0-.5-.043-.729-.129a1.769 1.769 0 01-.6-.371 1.754 1.754 0 01-.407-.593c-.1-.233-.15-.498-.15-.793v-.286c0-.295.05-.56.15-.792.1-.234.236-.431.407-.593.172-.162.372-.286.6-.372.229-.085.472-.128.729-.128s.5.043.729.128c.228.086.428.21.6.372.171.162.307.36.407.593.1.233.15.497.15.792v.286c0 .295-.05.56-.15.793-.1.233-.236.431-.407.593a1.767 1.767 0 01-.6.371 2.058 2.058 0 01-.729.129zm11.398 4.057c-.205.21-.47.314-.793.314h-4.771v-1.714h3.685c.258 0 .386-.143.386-.429v-1.742h-.257c-.076.162-.17.316-.279.464a1.63 1.63 0 01-.428.393 2.237 2.237 0 01-.629.271c-.243.067-.535.1-.878.1-.438 0-.846-.078-1.222-.236a2.749 2.749 0 01-.985-.7c-.281-.31-.5-.688-.658-1.135-.157-.448-.235-.962-.235-1.543v-.257c0-.572.083-1.081.25-1.529.166-.447.395-.826.685-1.136.29-.31.629-.545 1.015-.707a3.124 3.124 0 011.221-.243c.572 0 1.024.108 1.357.322.334.214.596.517.786.907h.257v-1.029h1.8v8.829c0 .324-.102.59-.307.8zM66.172 29.2c-.561 0-1.016-.174-1.364-.522-.348-.347-.521-.821-.521-1.421v-.171c0-.6.173-1.074.521-1.422.348-.348.802-.521 1.364-.521s1.017.178 1.365.535c.347.358.521.827.521 1.408v.171c0 .581-.174 1.05-.521 1.407-.348.357-.803.536-1.365.536zm11.491-.2v1.714h-6.6V29h2.486v-6.572h-2.4v-1.714h4.2V29h2.314zm4.877 1.914c.466 0 .874-.052 1.221-.157.348-.105.643-.238.886-.4.243-.162.44-.34.593-.536a3.05 3.05 0 00.357-.564l-1.543-.857a1.41 1.41 0 01-.514.564c-.238.157-.581.236-1.029.236-.228 0-.445-.036-.65-.107a1.768 1.768 0 01-.543-.3 1.389 1.389 0 01-.521-1.036h5.2V26.8a3.59 3.59 0 00-.2-1.15 3.203 3.203 0 00-.629-1.086 3.388 3.388 0 00-1.085-.814c-.439-.214-.962-.322-1.572-.322-.495 0-.96.088-1.393.265a3.37 3.37 0 00-1.9 1.879 3.841 3.841 0 00-.278 1.485v.086c0 .59.088 1.119.264 1.585.176.467.424.862.743 1.186a3.22 3.22 0 001.136.743c.438.171.923.257 1.457.257zm-1.715-4.7h3.343c-.057-.333-.235-.61-.535-.828-.3-.22-.679-.329-1.136-.329-.457 0-.829.117-1.114.35-.286.233-.472.502-.557.807zm8.291 4.5v-3.771h2.029c.514 0 .962-.086 1.343-.257a2.8 2.8 0 00.95-.679c.252-.28.443-.6.571-.957.129-.357.193-.722.193-1.093v-.343c0-.362-.064-.716-.193-1.064a2.752 2.752 0 00-.571-.929 2.819 2.819 0 00-.95-.657c-.381-.166-.829-.25-1.343-.25H87.23v10h1.885zm0-5.571h1.843c.42 0 .75-.115.993-.343.243-.229.364-.524.364-.886v-.171c0-.362-.121-.657-.364-.886-.243-.229-.574-.343-.993-.343h-1.843v2.629zm12.863 5.571V29h-2.315v-8.286h-4.2v1.714h2.4V29h-2.486v1.714h6.601zm5.333-.078c-.343.185-.743.278-1.2.278-.428 0-.831-.08-1.207-.243a2.862 2.862 0 01-.993-.714 3.467 3.467 0 01-.678-1.143c-.167-.448-.25-.957-.25-1.528v-.229c0-.562.081-1.067.242-1.514.162-.448.381-.829.658-1.143a2.83 2.83 0 01.964-.722c.367-.166.759-.25 1.178-.25.505 0 .912.086 1.222.258.309.171.555.438.736.8h.257v-.858h1.8v4.943c0 .286.128.429.385.429h.272v1.714h-1.229c-.323 0-.588-.095-.793-.286a.97.97 0 01-.307-.742h-.257c-.19.447-.457.764-.8.95zm-.8-1.436c-.524 0-.943-.174-1.257-.522-.314-.347-.471-.821-.471-1.421v-.171c0-.6.157-1.074.471-1.422.314-.348.733-.521 1.257-.521.524 0 .943.174 1.257.521.315.348.472.822.472 1.422v.171c0 .6-.157 1.074-.472 1.421-.314.348-.733.522-1.257.522zm11.412 4.057c-.204.21-.469.314-.792.314h-4.215v-1.714h3.129c.257 0 .386-.143.386-.429v-1.742h-.258c-.314.819-.99 1.228-2.028 1.228-.353 0-.681-.057-.986-.171a2.138 2.138 0 01-.8-.529 2.498 2.498 0 01-.536-.893c-.128-.357-.192-.778-.192-1.264v-4.429h1.8v4.058c0 .504.119.897.357 1.178.238.281.595.422 1.071.422.543 0 .941-.174 1.193-.522.252-.348.379-.821.379-1.421v-3.715h1.8v8.829c0 .324-.103.59-.308.8zM56.046 9.657c.09 0 .177-.017.26-.053a.72.72 0 00.219-.143.671.671 0 00.2-.482.671.671 0 00-.68-.679.647.647 0 00-.263.054.733.733 0 00-.215.143.673.673 0 00-.2.482.673.673 0 00.679.678zm-15.789 3.825c-.162.127-.405.19-.728.19-.229 0-.443-.043-.643-.129a1.438 1.438 0 01-.522-.382 1.86 1.86 0 01-.35-.629 2.699 2.699 0 01-.128-.875v-1.171c0-.324.046-.61.139-.86.093-.25.221-.461.386-.633.164-.171.36-.301.589-.39a2.09 2.09 0 01.757-.131c.286 0 .54.046.765.139a1.642 1.642 0 01.928.964c.081.222.122.459.122.711v.086h-.943v-.086c0-.3-.078-.527-.232-.682-.155-.155-.373-.232-.654-.232a.871.871 0 00-.657.268c-.172.178-.257.484-.257.917v1.058c0 .771.314 1.157.943 1.157.28 0 .494-.075.639-.225.145-.15.218-.352.218-.604h-1.2v-.9h2.142v2.529h-.857v-.557h-.128a.93.93 0 01-.329.467zm4.2.111a2.129 2.129 0 01-.612.079c-.266 0-.51-.043-.728-.129a1.61 1.61 0 01-.94-.964 2.233 2.233 0 01-.132-.793v-.043c0-.271.047-.519.14-.743a1.685 1.685 0 01.95-.939c.216-.088.449-.132.696-.132.305 0 .567.053.786.16.219.108.4.243.543.408.143.164.247.345.314.543.067.197.1.389.1.575v.478h-2.6a.696.696 0 00.26.518c.08.064.17.114.272.15a.98.98 0 00.325.054c.224 0 .395-.04.514-.118a.704.704 0 00.258-.282l.771.428c-.043.09-.102.185-.179.282a1.252 1.252 0 01-.296.268 1.656 1.656 0 01-.443.2zm.203-2.271h-1.672a.799.799 0 01.279-.404c.143-.116.328-.175.557-.175.229 0 .418.055.568.164.15.11.24.248.268.415zm4.574 1.393v.857h-1.5a.53.53 0 01-.55-.557v-2.129h-1.05v-.857h1.05V8.572h.9v1.457h1.278v.857h-1.278V12.5c0 .143.064.215.193.215h.957zm8.298 0v.857h-3.129v-.857h1.2v-1.829H54.49v-.857h2.014v2.686h1.029zm3.86.857v-.857h-.958c-.128 0-.193-.072-.193-.215v-1.614h1.279v-.857H60.24V8.572h-.9v1.457h-1.05v.857h1.05v2.129a.53.53 0 00.55.557h1.5zm7.43-.022c-.222.081-.454.122-.697.122-.243 0-.475-.04-.696-.122a1.785 1.785 0 01-.59-.353 1.665 1.665 0 01-.407-.572c-.1-.226-.15-.487-.15-.782v-.086c0-.29.05-.548.15-.775a1.704 1.704 0 01.997-.932c.221-.08.453-.121.696-.121.243 0 .475.04.697.121a1.703 1.703 0 01.996.932c.1.227.15.485.15.775v.086c0 .295-.05.556-.15.782-.1.226-.236.417-.407.572a1.785 1.785 0 01-.59.353zm-.697-.735a1.03 1.03 0 01-.364-.065.877.877 0 01-.504-.482.997.997 0 01-.075-.396v-.143c0-.148.025-.28.075-.397a.878.878 0 01.504-.482c.114-.043.236-.064.364-.064.129 0 .25.021.364.064a.878.878 0 01.504.482c.05.117.075.25.075.397v.143c0 .147-.025.28-.075.396a.878.878 0 01-.504.482 1.03 1.03 0 01-.364.065zm3.324-1.086v1.843h-.9v-3.543h.9v.528h.129a.94.94 0 01.392-.464c.181-.11.393-.164.636-.164.172 0 .332.027.482.082.15.055.282.14.397.254.114.114.203.26.268.435.064.177.096.386.096.629v2.243h-.9v-2.015c0-.252-.06-.45-.182-.596-.122-.145-.297-.218-.525-.218-.267 0-.466.09-.597.268-.13.179-.196.418-.196.718zM12.823 10.17a1.677 1.677 0 011.61.076l9.908 5.77-2.838 2.852-8.68-8.699zm-.966 1.56c0-.266.06-.524.169-.756l8.677 8.697-8.676 8.717a1.702 1.702 0 01-.17-.747V11.73zm9.647 8.743l-8.666 8.707a1.7 1.7 0 00.72.153c.3 0 .602-.072.874-.236l9.91-5.779-2.838-2.845zm6.6-2.265a1.686 1.686 0 01.828 1.459c0 .598-.306 1.141-.817 1.452l-2.76 1.609-3.052-3.058 3.05-3.065 2.751 1.603z" fill="#495567"/></svg>